<svg width="314" height="200" viewBox="0 0 314 200" fill="none" xmlns="http://www.w3.org/2000/svg">
<ellipse cx="157" cy="97" rx="157" ry="75" fill="#0378F7" fill-opacity="0.1"/>
<g clip-path="url(#clip0)">
<path d="M237.171 0.120239H25.0907V135.946H237.171V0.120239Z" fill="#E6E6E6"/>
<path d="M231.106 17.1561H31.1551V127.91H231.106V17.1561Z" fill="white"/>
<path d="M237.08 0H25V9.00993H237.08V0Z" fill="#0378F7" fill-opacity="0.6"/>
<path d="M31.6955 6.27627C32.6178 6.27627 33.3654 5.52863 33.3654 4.60635C33.3654 3.68408 32.6178 2.93643 31.6955 2.93643C30.7733 2.93643 30.0256 3.68408 30.0256 4.60635C30.0256 5.52863 30.7733 6.27627 31.6955 6.27627Z" fill="white"/>
<path d="M38.034 6.27627C38.9563 6.27627 39.7039 5.52863 39.7039 4.60635C39.7039 3.68408 38.9563 2.93643 38.034 2.93643C37.1117 2.93643 36.3641 3.68408 36.3641 4.60635C36.3641 5.52863 37.1117 6.27627 38.034 6.27627Z" fill="white"/>
<path d="M44.3728 6.27627C45.2951 6.27627 46.0427 5.52863 46.0427 4.60635C46.0427 3.68408 45.2951 2.93643 44.3728 2.93643C43.4505 2.93643 42.7029 3.68408 42.7029 4.60635C42.7029 5.52863 43.4505 6.27627 44.3728 6.27627Z" fill="white"/>
<path d="M100.701 28.6478H49.3231V116.419H100.701V28.6478Z" fill="#E6E6E6"/>
<path d="M152.385 28.6478H109.57V52.8077H152.385V28.6478Z" fill="#0378F7" fill-opacity="0.6"/>
<path d="M152.385 59.5357H109.57V85.5306H152.385V59.5357Z" fill="#E6E6E6"/>
<path d="M152.385 92.2587H109.57V116.419H152.385V92.2587Z" fill="#E6E6E6"/>
<path d="M212.938 28.6478H161.56V66.8978H212.938V28.6478Z" fill="#E6E6E6"/>
<path d="M212.938 78.1685H161.56V116.419H212.938V78.1685Z" fill="#0378F7" fill-opacity="0.6"/>
<path d="M267.64 68.0775C264.251 62.3015 257.546 62.0323 257.546 62.0323C257.546 62.0323 251.012 61.1895 246.821 69.9865C242.914 78.1859 237.523 86.1027 245.953 88.0221L247.476 83.2417L248.419 88.378C249.619 88.4651 250.823 88.4858 252.026 88.4402C261.054 88.1462 269.651 88.5262 269.375 85.2585C269.007 80.9146 270.901 73.6351 267.64 68.0775Z" fill="#333333"/>
<path d="M235.501 98.917L232.537 106.493L217.714 120.327C217.714 120.327 208.821 126.915 212.774 128.891C216.726 130.868 220.349 121.645 220.349 121.645L236.16 112.092L239.454 101.223L235.501 98.917Z" fill="#FFB8B8"/>
<path d="M240.442 182.911L243.406 190.487H247.688L244.065 181.593L240.442 182.911Z" fill="#FFB8B8"/>
<path d="M253.288 186.205L256.252 193.781H260.534L256.911 184.887L253.288 186.205Z" fill="#FFB8B8"/>
<path d="M252.959 187.522L258.558 186.205L251.312 156.889L253.718 134.332L253.782 134.326C253.782 134.326 257.9 118.351 254.606 114.069C251.312 109.787 234.842 111.434 234.842 111.434C234.842 111.434 228.584 117.692 228.913 131.856C229.243 146.019 228.913 158.207 231.219 163.806C233.525 169.406 240.113 184.228 240.113 184.228L245.383 183.57L239.783 159.195L238.888 138.006C239.6 146.497 241.035 162.598 241.76 163.806C242.748 165.453 252.959 187.522 252.959 187.522Z" fill="#333333"/>
<path d="M269.757 105.834L272.063 114.069L282.274 132.514C282.274 132.514 291.167 140.42 287.544 141.408C283.921 142.396 278.321 134.161 278.321 134.161L266.793 118.021L263.828 106.163L269.757 105.834Z" fill="#FFB8B8"/>
<path d="M257.899 82.4475C262.447 82.4475 266.134 78.7607 266.134 74.2129C266.134 69.665 262.447 65.9782 257.899 65.9782C253.351 65.9782 249.665 69.665 249.665 74.2129C249.665 78.7607 253.351 82.4475 257.899 82.4475Z" fill="#FFB8B8"/>
<path d="M253.617 78.4949L251.641 84.7533L248.347 91.9998L260.535 87.059C260.535 87.059 259.876 81.7888 260.535 80.4712L253.617 78.4949Z" fill="#FFB8B8"/>
<path d="M267.781 91.6704L260.205 85.412L251.641 89.0353L251.977 83.6907L242.839 86.609L241.43 87.059L239.454 97.27C239.454 97.27 238.136 98.2581 236.819 103.858C236.058 107.148 234.954 110.35 233.525 113.41C233.525 113.41 247.688 107.81 254.605 115.386C254.605 115.386 255.594 114.728 255.264 113.739C254.935 112.751 258.229 107.81 258.229 107.81C258.229 107.81 258.229 108.799 259.546 106.822C260.864 104.846 261.852 104.517 261.852 104.517L267.781 91.6704Z" fill="#0378F7" fill-opacity="0.6"/>
<path d="M243.407 88.0472L241.968 86.8873C241.968 86.8873 240.771 86.4002 239.783 88.0472C238.795 89.6941 233.854 99.9051 233.854 99.9051L239.783 102.87L243.407 88.0472Z" fill="#0378F7" fill-opacity="0.6"/>
<path d="M263.17 91.341L267.781 91.6704C267.781 91.6704 270.416 92.988 270.416 94.9643C270.416 96.9406 271.075 107.481 271.075 107.481L263.828 109.787L260.864 100.564L263.17 91.341Z" fill="#0378F7" fill-opacity="0.6"/>
<path d="M242.455 189.334L236.855 191.639C236.855 191.639 230.267 191.969 231.255 195.263C232.244 198.557 242.125 196.251 242.125 196.251C242.125 196.251 251.019 196.58 251.019 194.275C251.019 191.969 249.701 189.334 248.384 189.334H242.455Z" fill="#333333"/>
<path d="M254.971 192.298L249.372 194.604C249.372 194.604 242.784 194.933 243.772 198.227C244.76 201.521 254.642 199.215 254.642 199.215C254.642 199.215 263.535 199.545 263.535 197.239C263.535 194.933 262.218 192.298 260.9 192.298H254.971Z" fill="#333333"/>
<path d="M266.141 67.5208L259.517 64.0207L250.369 65.4526L248.477 73.8839L253.188 73.7014L254.504 70.6035V73.6504L256.678 73.566L257.94 68.6344L258.728 73.8839L266.457 73.7248L266.141 67.5208Z" fill="#333333"/>
<path d="M221.835 27.5191C215.246 21.9592 207.183 18.4342 198.627 17.3732C190.071 16.3123 181.392 17.761 173.644 21.5431C165.897 25.3252 159.415 31.2776 154.989 38.6761C150.563 46.0745 148.382 54.6 148.713 63.2151C149.044 71.8302 151.871 80.1634 156.852 87.2007C161.832 94.238 168.751 99.6761 176.766 102.853C184.78 106.03 193.546 106.809 201.995 105.095C210.444 103.381 218.213 99.2487 224.357 93.1999L278.909 139.231C279.321 139.578 279.796 139.841 280.309 140.004C280.822 140.168 281.362 140.228 281.898 140.183C282.435 140.138 282.957 139.987 283.435 139.74C283.913 139.493 284.338 139.154 284.685 138.742C285.032 138.331 285.295 137.855 285.458 137.342C285.621 136.829 285.682 136.289 285.636 135.753C285.591 135.217 285.44 134.695 285.193 134.216C284.946 133.738 284.607 133.314 284.195 132.967L229.643 86.9355C235.98 77.8401 238.692 66.706 237.248 55.715C235.804 44.724 230.307 34.6686 221.835 27.5191ZM218.319 82.503C214.069 87.5396 208.421 91.2029 202.089 93.0296C195.757 94.8563 189.026 94.7644 182.746 92.7655C176.466 90.7665 170.921 86.9503 166.81 81.7995C162.699 76.6487 160.208 70.3946 159.652 63.828C159.095 57.2614 160.499 50.6773 163.684 44.9084C166.87 39.1394 171.695 34.4446 177.549 31.4178C183.403 28.3909 190.022 27.1678 196.571 27.9033C203.12 28.6387 209.304 31.2996 214.341 35.5495C221.095 41.2485 225.308 49.3969 226.054 58.2024C226.8 67.0079 224.017 75.7491 218.319 82.503Z" fill="#3F3D56"/>
<path opacity="0.3" d="M171.365 86.4809C164.973 81.0867 160.843 73.486 159.796 65.1879C158.748 56.8898 160.86 48.5012 165.711 41.6878C165.074 42.3294 164.458 43.0014 163.863 43.7037C161.041 47.0478 158.905 50.9151 157.578 55.0847C156.25 59.2544 155.757 63.6446 156.126 68.0049C156.495 72.3651 157.72 76.61 159.73 80.497C161.739 84.384 164.495 87.837 167.84 90.659C171.184 93.4809 175.051 95.6165 179.221 96.9438C183.391 98.271 187.781 98.7639 192.141 98.3944C196.502 98.0248 200.746 96.8 204.633 94.7899C208.52 92.7799 211.973 90.0238 214.795 86.6793C215.388 85.9761 215.947 85.2559 216.471 84.5188C210.571 90.4471 202.657 93.9397 194.301 94.3032C185.945 94.6667 177.758 91.8744 171.365 86.4809Z" fill="black"/>
</g>
<defs>
<clipPath id="clip0">
<rect width="263.412" height="200" fill="white" transform="translate(25)"/>
</clipPath>
</defs>
</svg>
