<svg width="24" height="24" viewBox="0 0 24 24" fill="none" xmlns="http://www.w3.org/2000/svg">
<path fill-rule="evenodd" clip-rule="evenodd" d="M13.17 7.00245C13.3766 6.41692 13.7597 5.90988 14.2666 5.55124C14.7735 5.1926 15.3791 5 16 5C16.6209 5 17.2265 5.1926 17.7334 5.55124C18.2403 5.90988 18.6234 6.41692 18.83 7.00245H21C21.2652 7.00245 21.5196 7.10781 21.7071 7.29534C21.8946 7.48288 22 7.73723 22 8.00245C22 8.26767 21.8946 8.52202 21.7071 8.70956C21.5196 8.89709 21.2652 9.00245 21 9.00245H18.83C18.6234 9.58798 18.2403 10.095 17.7334 10.4537C17.2265 10.8123 16.6209 11.0049 16 11.0049C15.3791 11.0049 14.7735 10.8123 14.2666 10.4537C13.7597 10.095 13.3766 9.58798 13.17 9.00245H3C2.73478 9.00245 2.48043 8.89709 2.29289 8.70956C2.10536 8.52202 2 8.26767 2 8.00245C2 7.73723 2.10536 7.48288 2.29289 7.29534C2.48043 7.10781 2.73478 7.00245 3 7.00245H13.17ZM5.17 15.0025C5.3766 14.4169 5.75974 13.9099 6.2666 13.5512C6.77346 13.1926 7.37909 13 8 13C8.62091 13 9.22654 13.1926 9.7334 13.5512C10.2403 13.9099 10.6234 14.4169 10.83 15.0025H21C21.2652 15.0025 21.5196 15.1078 21.7071 15.2953C21.8946 15.4829 22 15.7372 22 16.0025C22 16.2677 21.8946 16.522 21.7071 16.7096C21.5196 16.8971 21.2652 17.0025 21 17.0025H10.83C10.6234 17.588 10.2403 18.095 9.7334 18.4537C9.22654 18.8123 8.62091 19.0049 8 19.0049C7.37909 19.0049 6.77346 18.8123 6.2666 18.4537C5.75974 18.095 5.3766 17.588 5.17 17.0025H3C2.73478 17.0025 2.48043 16.8971 2.29289 16.7096C2.10536 16.522 2 16.2677 2 16.0025C2 15.7372 2.10536 15.4829 2.29289 15.2953C2.48043 15.1078 2.73478 15.0025 3 15.0025H5.17ZM16 9.00245C16.2652 9.00245 16.5196 8.89709 16.7071 8.70956C16.8946 8.52202 17 8.26767 17 8.00245C17 7.73723 16.8946 7.48288 16.7071 7.29534C16.5196 7.10781 16.2652 7.00245 16 7.00245C15.7348 7.00245 15.4804 7.10781 15.2929 7.29534C15.1054 7.48288 15 7.73723 15 8.00245C15 8.26767 15.1054 8.52202 15.2929 8.70956C15.4804 8.89709 15.7348 9.00245 16 9.00245ZM8 17.0025C8.26522 17.0025 8.51957 16.8971 8.70711 16.7096C8.89464 16.522 9 16.2677 9 16.0025C9 15.7372 8.89464 15.4829 8.70711 15.2953C8.51957 15.1078 8.26522 15.0025 8 15.0025C7.73478 15.0025 7.48043 15.1078 7.29289 15.2953C7.10536 15.4829 7 15.7372 7 16.0025C7 16.2677 7.10536 16.522 7.29289 16.7096C7.48043 16.8971 7.73478 17.0025 8 17.0025Z" fill="#333333"/>
</svg>
