<svg width="16" height="17" viewBox="0 0 16 17" fill="none" xmlns="http://www.w3.org/2000/svg">
<path d="M15.9519 15.5384L10.758 10.3953C11.564 9.36346 11.9999 8.10192 11.9999 6.77503C11.9999 5.18673 11.374 3.69744 10.242 2.57454C9.10996 1.45163 7.60197 0.83374 5.99997 0.83374C4.39798 0.83374 2.88999 1.45362 1.75799 2.57454C0.623997 3.69546 0 5.18673 0 6.77503C0 8.36136 0.625997 9.85461 1.75799 10.9755C2.88999 12.0984 4.39598 12.7163 5.99997 12.7163C7.33997 12.7163 8.61196 12.2846 9.65396 11.4885L14.8479 16.6297C14.8632 16.6448 14.8812 16.6567 14.9012 16.6649C14.9211 16.6731 14.9424 16.6773 14.9639 16.6773C14.9855 16.6773 15.0068 16.6731 15.0267 16.6649C15.0466 16.6567 15.0647 16.6448 15.0799 16.6297L15.9519 15.7682C15.9672 15.7531 15.9793 15.7352 15.9875 15.7155C15.9958 15.6958 16 15.6746 16 15.6533C16 15.632 15.9958 15.6109 15.9875 15.5911C15.9793 15.5714 15.9672 15.5535 15.9519 15.5384ZM9.16796 9.91204C8.31996 10.7498 7.19597 11.2112 5.99997 11.2112C4.80398 11.2112 3.67998 10.7498 2.83199 9.91204C1.98599 9.07234 1.51999 7.95933 1.51999 6.77503C1.51999 5.59074 1.98599 4.47575 2.83199 3.63803C3.67998 2.80031 4.80398 2.33887 5.99997 2.33887C7.19597 2.33887 8.32196 2.79833 9.16796 3.63803C10.014 4.47773 10.48 5.59074 10.48 6.77503C10.48 7.95933 10.014 9.07432 9.16796 9.91204Z" fill="#333333" fill-opacity="0.5"/>
</svg>
